<svg width="216" height="27" viewBox="0 0 216 27" fill="none" xmlns="http://www.w3.org/2000/svg">
<path d="M1.26172 0.933594C2.08203 1.05078 2.79688 1.14453 3.40625 1.21484C4.01562 1.28516 4.51953 1.34375 4.91797 1.39062C5.38672 1.4375 5.78516 1.47266 6.11328 1.49609C6.48828 1.54297 6.94531 1.51953 7.48438 1.42578C8.04688 1.33203 8.64453 1.23828 9.27734 1.14453C9.91016 1.02734 10.5664 0.933594 11.2461 0.863281C11.9258 0.792969 12.582 0.792969 13.2148 0.863281C13.6367 0.910156 14.1758 1.00391 14.832 1.14453C15.4883 1.28516 16.1797 1.50781 16.9062 1.8125C17.6562 2.11719 18.4062 2.51562 19.1562 3.00781C19.9062 3.5 20.5859 4.12109 21.1953 4.87109C21.8047 5.62109 22.3086 6.51172 22.707 7.54297C23.1055 8.57422 23.3281 9.78125 23.375 11.1641C23.4453 13.2266 23.2578 15.1016 22.8125 16.7891C22.3672 18.4766 21.6758 19.918 20.7383 21.1133C19.8242 22.3086 18.6641 23.2461 17.2578 23.9258C15.8516 24.6055 14.2109 24.9805 12.3359 25.0508C10.9062 25.168 9.5 25.2734 8.11719 25.3672C7.53125 25.4141 6.91016 25.4492 6.25391 25.4727C5.62109 25.4961 4.98828 25.5195 4.35547 25.543C3.72266 25.543 3.11328 25.5312 2.52734 25.5078C1.94141 25.4844 1.40234 25.4492 0.910156 25.4023C1.44922 25.1445 1.88281 24.8867 2.21094 24.6289C2.5625 24.3711 2.83203 24.1484 3.01953 23.9609C3.23047 23.7266 3.38281 23.5156 3.47656 23.3281C3.52344 23.0703 3.59375 22.5664 3.6875 21.8164C3.75781 21.1836 3.85156 20.2812 3.96875 19.1094C4.08594 17.9375 4.22656 16.3438 4.39062 14.3281L4.60156 11.832C4.71875 10.2852 4.76562 9.01953 4.74219 8.03516C4.74219 7.05078 4.71875 6.27734 4.67188 5.71484C4.60156 5.05859 4.50781 4.57812 4.39062 4.27344C4.29688 4.01562 4.12109 3.71094 3.86328 3.35938C3.62891 3.07812 3.30078 2.73828 2.87891 2.33984C2.48047 1.91797 1.94141 1.44922 1.26172 0.933594ZM8.67969 13.8711C8.72656 15.957 8.83203 17.5625 8.99609 18.6875C9.18359 19.7891 9.38281 20.6094 9.59375 21.1484C9.85156 21.7578 10.1328 22.1211 10.4375 22.2383C10.8828 22.2383 11.3867 22.0508 11.9492 21.6758C12.5117 21.2773 13.0625 20.6797 13.6016 19.8828C14.1641 19.0859 14.668 18.0898 15.1133 16.8945C15.582 15.6992 15.9219 14.3047 16.1328 12.7109C16.3438 11.1172 16.2852 9.71094 15.957 8.49219C15.6289 7.27344 15.1953 6.25391 14.6562 5.43359C14.1172 4.58984 13.5664 3.95703 13.0039 3.53516C12.4414 3.08984 12.0195 2.86719 11.7383 2.86719C11.4102 2.86719 11.1172 2.96094 10.8594 3.14844C10.6016 3.3125 10.2383 3.69922 9.76953 4.30859C9.53516 4.63672 9.32422 5.10547 9.13672 5.71484C8.97266 6.25391 8.83203 6.96875 8.71484 7.85938C8.59766 8.75 8.5625 9.89844 8.60938 11.3047L8.67969 13.8711Z" fill="#FF3636"/>
<path d="M38.033 8.54545H40.1467V20.1023C40.1467 21.2955 39.8654 22.3608 39.3029 23.2983C38.7461 24.2301 37.9592 24.9659 36.9421 25.5057C35.9251 26.0398 34.7319 26.3068 33.3626 26.3068C31.9933 26.3068 30.8001 26.0398 29.783 25.5057C28.766 24.9659 27.9762 24.2301 27.4137 23.2983C26.8569 22.3608 26.5785 21.2955 26.5785 20.1023V8.54545H28.6921V19.9318C28.6921 20.7841 28.8796 21.5426 29.2546 22.2074C29.6296 22.8665 30.1637 23.3864 30.8569 23.767C31.5558 24.142 32.391 24.3295 33.3626 24.3295C34.3342 24.3295 35.1694 24.142 35.8683 23.767C36.5671 23.3864 37.1012 22.8665 37.4705 22.2074C37.8455 21.5426 38.033 20.7841 38.033 19.9318V8.54545ZM45.3903 8.54545L49.8903 15.8068H50.0266L54.5266 8.54545H57.0153L51.5266 17.2727L57.0153 26H54.5266L50.0266 18.875H49.8903L45.3903 26H42.9016L48.5266 17.2727L42.9016 8.54545H45.3903ZM80.3569 8.54545V26H78.3114L68.8001 12.2955H68.6296V26H66.516V8.54545H68.5614L78.1069 22.2841H78.2773V8.54545H80.3569ZM84.5863 26V8.54545H95.1204V10.4205H86.6999V16.3182H94.5749V18.1932H86.6999V24.125H95.2567V26H84.5863ZM97.9755 10.4205V8.54545H111.066V10.4205H105.578V26H103.464V10.4205H97.9755ZM117.499 26L112.726 8.54545H114.874L118.522 22.7614H118.692L122.408 8.54545H124.794L128.51 22.7614H128.681L132.328 8.54545H134.476L129.703 26H127.522L123.669 12.0909H123.533L119.681 26H117.499ZM151.017 17.2727C151.017 19.1136 150.684 20.7045 150.02 22.0455C149.355 23.3864 148.443 24.4205 147.284 25.1477C146.125 25.875 144.801 26.2386 143.312 26.2386C141.824 26.2386 140.5 25.875 139.341 25.1477C138.181 24.4205 137.27 23.3864 136.605 22.0455C135.94 20.7045 135.608 19.1136 135.608 17.2727C135.608 15.4318 135.94 13.8409 136.605 12.5C137.27 11.1591 138.181 10.125 139.341 9.39773C140.5 8.67045 141.824 8.30682 143.312 8.30682C144.801 8.30682 146.125 8.67045 147.284 9.39773C148.443 10.125 149.355 11.1591 150.02 12.5C150.684 13.8409 151.017 15.4318 151.017 17.2727ZM148.971 17.2727C148.971 15.7614 148.718 14.4858 148.213 13.446C147.713 12.4062 147.034 11.6193 146.176 11.0852C145.324 10.5511 144.369 10.2841 143.312 10.2841C142.255 10.2841 141.298 10.5511 140.44 11.0852C139.588 11.6193 138.909 12.4062 138.403 13.446C137.903 14.4858 137.653 15.7614 137.653 17.2727C137.653 18.7841 137.903 20.0597 138.403 21.0994C138.909 22.1392 139.588 22.9261 140.44 23.4602C141.298 23.9943 142.255 24.2614 143.312 24.2614C144.369 24.2614 145.324 23.9943 146.176 23.4602C147.034 22.9261 147.713 22.1392 148.213 21.0994C148.718 20.0597 148.971 18.7841 148.971 17.2727ZM154.571 26V8.54545H160.468C161.832 8.54545 162.951 8.77841 163.826 9.24432C164.701 9.70454 165.349 10.3381 165.77 11.1449C166.19 11.9517 166.4 12.8693 166.4 13.8977C166.4 14.9261 166.19 15.8381 165.77 16.6335C165.349 17.429 164.704 18.054 163.835 18.5085C162.966 18.9574 161.855 19.1818 160.502 19.1818H155.73V17.2727H160.434C161.366 17.2727 162.116 17.1364 162.684 16.8636C163.258 16.5909 163.673 16.2045 163.929 15.7045C164.19 15.1989 164.321 14.5966 164.321 13.8977C164.321 13.1989 164.19 12.5881 163.929 12.0653C163.667 11.5426 163.25 11.1392 162.676 10.8551C162.102 10.5653 161.343 10.4205 160.4 10.4205H156.684V26H154.571ZM162.787 18.1591L167.082 26H164.627L160.4 18.1591H162.787ZM169.922 26V8.54545H172.036V17.2045H172.24L180.081 8.54545H182.843L175.513 16.4205L182.843 26H180.286L174.218 17.8864L172.036 20.3409V26H169.922ZM193.752 26H190.982L198.993 4.18182H201.721L209.732 26H206.962L200.442 7.63352H200.272L193.752 26ZM194.775 17.4773H205.939V19.821H194.775V17.4773ZM215.772 4.18182V26H213.13V4.18182H215.772Z" fill="black"/>
</svg>
